<svg width="44" height="44" viewBox="0 0 44 44" fill="none" xmlns="http://www.w3.org/2000/svg">
<path fill-rule="evenodd" clip-rule="evenodd" d="M5.48438 29.8806V24.6562C6.16618 25.05 6.91817 25.3375 7.71822 25.4967C8.43559 25.6394 9.19585 25.6384 9.8268 25.6375H9.91093C17.9485 25.6311 25.9861 25.6311 34.0237 25.6375H34.1077C34.7386 25.6384 35.4989 25.6394 36.2162 25.4967C37.0162 25.3375 37.7682 25.05 38.45 24.6562V29.8806C38.45 31.4215 38.4502 32.7493 38.2997 33.8125C38.1381 34.952 37.7742 36.0442 36.8407 36.9301C35.9075 37.816 34.7566 38.1615 33.5561 38.3146C32.4358 38.4577 31.037 38.4575 29.4134 38.4575H14.5209C12.8974 38.4575 11.4985 38.4577 10.3783 38.3146C9.17781 38.1615 8.02704 37.816 7.09362 36.9301C6.16021 36.0442 5.79623 34.952 5.63483 33.8125C5.48421 32.7493 5.48429 31.4215 5.48438 29.8806ZM23.7986 31.1318C23.7986 30.1203 22.9787 29.3004 21.9672 29.3004C20.9557 29.3004 20.1358 30.1203 20.1358 31.1318V32.9632C20.1358 33.9747 20.9557 34.7947 21.9672 34.7947C22.9787 34.7947 23.7986 33.9747 23.7986 32.9632V31.1318Z" fill="#FFCC80"/>
<path fill-rule="evenodd" clip-rule="evenodd" d="M10.4683 5.26701C8.81869 6.91659 8.51045 9.13185 9.17311 10.996C8.78375 11.0053 8.42677 11.0303 8.09438 11.0964C5.91488 11.5299 4.21114 13.2336 3.77761 15.4131C3.67093 15.9495 3.6714 16.5498 3.67195 17.2471L3.67204 17.4007L3.67195 17.5543C3.6714 18.2515 3.67093 18.8519 3.77761 19.3881C4.21114 21.5677 5.91488 23.2715 8.09438 23.705C8.63074 23.8116 9.23113 23.8112 9.92834 23.8106C17.9668 23.8042 26.0054 23.8042 34.0439 23.8106C34.7411 23.8112 35.3416 23.8116 35.8778 23.705C38.0574 23.2715 39.7612 21.5677 40.1947 19.3881C40.3013 18.8519 40.3009 18.2515 40.3004 17.5544L40.3002 17.4007L40.3004 17.247C40.3009 16.5498 40.3013 15.9494 40.1947 15.4131C39.7612 13.2336 38.0574 11.5299 35.8778 11.0964C35.5454 11.0303 35.1885 11.0053 34.7989 10.996C35.4616 9.13185 35.1533 6.91659 33.5038 5.26701C31.1905 2.95375 27.3729 3.15691 25.3252 5.7165L21.9861 9.89037L18.6469 5.7165C16.5993 3.15691 12.7815 2.95375 10.4683 5.26701ZM21.9861 12.8221C20.9746 12.8221 20.1547 13.6421 20.1547 14.6535V18.3164C20.1547 19.3279 20.9746 20.1478 21.9861 20.1478C22.9976 20.1478 23.8175 19.3279 23.8175 18.3164V14.6535C23.8175 13.6421 22.9976 12.8221 21.9861 12.8221ZM14.3461 10.9907C12.7253 10.9907 11.8969 9.01844 13.0583 7.85705C13.8324 7.08294 15.1069 7.15479 15.7867 8.00466L18.1755 10.9907H14.3461ZM29.6259 10.9907C31.2467 10.9907 32.0753 9.01844 30.9138 7.85705C30.1396 7.08294 28.8653 7.15479 28.1853 8.00466L25.7966 10.9907H29.6259Z" fill="#FFCC80"/>
</svg>
