<svg width="461" height="414" viewBox="0 0 461 414" fill="none" xmlns="http://www.w3.org/2000/svg">
<mask id="path-1-inside-1_219_36" fill="white">
<path d="M270.117 10.7012C272.681 4.77691 277.983 -0.169793 284.436 0.0037525C336.52 1.40451 391.275 4.8727 456.392 10.4707C458.973 10.6926 461 12.8582 461 15.4492V408.315C461 411.427 458.131 413.771 455.066 413.229C280.679 382.337 180.279 384.357 5.875 413.307C2.82819 413.812 0.000293936 411.473 0 408.385V15.459C0.000147566 12.8637 2.03388 10.6971 4.62012 10.4805C70.1575 4.98991 125.195 1.49498 177.55 0.0503431C184.001 -0.127686 189.307 4.8133 191.876 10.7343C198.219 25.3526 213.342 35.6396 230.99 35.6396C248.652 35.6395 263.783 25.337 270.117 10.7012Z"/>
</mask>
<path d="M456.392 10.4707L456.477 9.47438L456.392 10.4707ZM461 408.315L462 408.316V408.315H461ZM455.066 413.229L455.241 412.244L455.241 412.244L455.066 413.229ZM5.875 413.307L6.0387 414.293L6.03875 414.293L5.875 413.307ZM0 408.385L-1 408.385L-1 408.385L0 408.385ZM0 15.459L-1 15.4589V15.459H0ZM4.62012 10.4805L4.53663 9.48396L4.53663 9.48396L4.62012 10.4805ZM230.99 35.6396L230.99 36.6396L230.99 36.6396L230.99 35.6396ZM191.876 10.7343L190.959 11.1324L191.876 10.7343ZM270.117 10.7012L271.035 11.0984L270.117 10.7012ZM284.436 0.0037525L284.409 1.00339C336.468 2.40346 391.202 5.87008 456.306 11.467L456.392 10.4707L456.477 9.47438C391.348 3.87532 336.573 0.405567 284.463 -0.995886L284.436 0.0037525ZM456.392 10.4707L456.306 11.467C458.381 11.6454 460 13.388 460 15.4492H461H462C462 12.3283 459.565 9.73984 456.477 9.47438L456.392 10.4707ZM461 15.4492H460V408.315H461H462V15.4492H461ZM461 408.315L460 408.315C460 410.788 457.709 412.681 455.241 412.244L455.066 413.229L454.892 414.213C458.552 414.861 462 412.066 462 408.316L461 408.315ZM455.066 413.229L455.241 412.244C280.73 381.33 180.214 383.354 5.71125 412.32L5.875 413.307L6.03875 414.293C180.343 385.36 280.628 383.344 454.892 414.213L455.066 413.229ZM5.875 413.307L5.7113 412.32C3.25782 412.727 1.00023 410.839 1 408.385L0 408.385L-1 408.385C-0.999646 412.107 2.39856 414.897 6.0387 414.293L5.875 413.307ZM0 408.385H1V15.459H0H-1V408.385H0ZM0 15.459L1 15.459C1.00012 13.3948 2.62425 11.6512 4.7036 11.477L4.62012 10.4805L4.53663 9.48396C1.4435 9.7431 -0.999822 12.3326 -1 15.4589L0 15.459ZM4.62012 10.4805L4.7036 11.477C70.2303 5.98731 125.248 2.49391 177.577 1.04996L177.55 0.0503431L177.522 -0.949276C125.142 0.496059 70.0847 3.9925 4.53663 9.48396L4.62012 10.4805ZM191.876 10.7343L190.959 11.1324C197.463 26.1236 212.952 36.6396 230.99 36.6396V35.6396V34.6396C213.732 34.6396 198.974 24.5816 192.794 10.3363L191.876 10.7343ZM230.99 35.6396L230.99 36.6396C249.042 36.6395 264.54 26.1076 271.035 11.0984L270.117 10.7012L269.199 10.304C263.027 24.5664 248.261 34.6395 230.99 34.6396L230.99 35.6396ZM177.55 0.0503431L177.577 1.04996C183.465 0.887502 188.48 5.41875 190.959 11.1324L191.876 10.7343L192.794 10.3363C190.135 4.20784 184.538 -1.14287 177.522 -0.949276L177.55 0.0503431ZM284.436 0.0037525L284.463 -0.995886C277.446 -1.18461 271.853 4.17226 269.199 10.304L270.117 10.7012L271.035 11.0984C273.509 5.38155 278.521 0.845024 284.409 1.00339L284.436 0.0037525Z" fill="#D39F51" fill-opacity="0.94" mask="url(#path-1-inside-1_219_36)"/>
</svg>
