<svg width="24" height="24" viewBox="0 0 24 24" fill="none" xmlns="http://www.w3.org/2000/svg">
<path fill-rule="evenodd" clip-rule="evenodd" d="M3.5152 4.31836C4.01296 3.48956 4.7168 2.80374 5.55823 2.32765C6.39966 1.85156 7.35002 1.60142 8.3168 1.60156H15.6832C16.6497 1.60169 17.5997 1.85197 18.4409 2.32805C19.282 2.80412 19.9856 3.4898 20.4832 4.31836L24 10.1744V20.0016C24 20.6381 23.7471 21.2485 23.2971 21.6986C22.847 22.1487 22.2365 22.4016 21.6 22.4016H20C19.3635 22.4016 18.753 22.1487 18.3029 21.6986C17.8529 21.2485 17.6 20.6381 17.6 20.0016V19.2016H6.4V20.0016C6.4 20.6381 6.14714 21.2485 5.69706 21.6986C5.24697 22.1487 4.63652 22.4016 4 22.4016H2.4C1.76348 22.4016 1.15303 22.1487 0.702944 21.6986C0.252856 21.2485 0 20.6381 0 20.0016L0 10.1744L3.5152 4.31836ZM19.2 11.2016H4.8V9.60156H19.2V11.2016ZM3.2 16.0016H8V14.4016H3.2V16.0016ZM20.8 14.4016H16V16.0016H20.8V14.4016Z" fill="#4B3000"/>
</svg>
