<svg width="20" height="23" viewBox="0 0 20 23" fill="none" xmlns="http://www.w3.org/2000/svg">
<path d="M8.46154 2.875H5.38462C4.6775 2.875 3.9773 3.00514 3.32401 3.25798C2.67072 3.51082 2.07713 3.88142 1.57712 4.34862C1.07711 4.81581 0.680482 5.37045 0.409879 5.98087C0.139277 6.59129 0 7.24554 0 7.90625C0 8.56696 0.139277 9.22121 0.409879 9.83163C0.680482 10.442 1.07711 10.9967 1.57712 11.4639C2.07713 11.9311 2.67072 12.3017 3.32401 12.5545C3.9773 12.8074 4.6775 12.9375 5.38462 12.9375H8.46154V17.25H1.53846V20.125H8.46154V23H11.5385V20.125H14.6154C16.0435 20.125 17.4131 19.5949 18.4229 18.6514C19.4327 17.7078 20 16.4281 20 15.0938C20 13.7594 19.4327 12.4797 18.4229 11.5361C17.4131 10.5926 16.0435 10.0625 14.6154 10.0625H11.5385V5.75H18.4615V2.875H11.5385V0H8.46154V2.875ZM11.5385 12.9375H14.6154C15.2274 12.9375 15.8144 13.1647 16.2472 13.5691C16.6799 13.9734 16.9231 14.5219 16.9231 15.0938C16.9231 15.6656 16.6799 16.2141 16.2472 16.6185C15.8144 17.0228 15.2274 17.25 14.6154 17.25H11.5385V12.9375ZM8.46154 10.0625H5.38462C5.08156 10.0625 4.78148 10.0067 4.5015 9.89837C4.22152 9.79 3.96712 9.63118 3.75283 9.43095C3.53854 9.23072 3.36856 8.99302 3.25259 8.73141C3.13661 8.4698 3.07692 8.18941 3.07692 7.90625C3.07692 7.62309 3.13661 7.3427 3.25259 7.08109C3.36856 6.81948 3.53854 6.58178 3.75283 6.38155C3.96712 6.18132 4.22152 6.0225 4.5015 5.91413C4.78148 5.80577 5.08156 5.75 5.38462 5.75H8.46154V10.0625Z" fill="#4B3000"/>
</svg>
